<svg width="25" height="25" viewBox="0 0 25 25" fill="none" xmlns="http://www.w3.org/2000/svg">
<mask id="mask0_526_1785" style="mask-type:alpha" maskUnits="userSpaceOnUse" x="0" y="0" width="25" height="25">
<path d="M12.5 25C19.4036 25 25 19.4036 25 12.5C25 5.59644 19.4036 0 12.5 0C5.59644 0 0 5.59644 0 12.5C0 19.4036 5.59644 25 12.5 25Z" fill="black"/>
</mask>
<g mask="url(#mask0_526_1785)">
<path d="M0.714844 13.2148C7.6184 13.2148 13.2148 7.6184 13.2148 0.714845C13.2148 -6.18871 7.6184 -11.7852 0.714844 -11.7852C-6.18872 -11.7852 -11.7852 -6.18871 -11.7852 0.714845C-11.7852 7.6184 -6.18872 13.2148 0.714844 13.2148Z" fill="black"/>
<path d="M0.714844 36.7871C7.6184 36.7871 13.2148 31.1907 13.2148 24.2871C13.2148 17.3836 7.6184 11.7871 0.714844 11.7871C-6.18872 11.7871 -11.7852 17.3836 -11.7852 24.2871C-11.7852 31.1907 -6.18872 36.7871 0.714844 36.7871Z" fill="black"/>
<path d="M24.2852 13.2148C31.1887 13.2148 36.7852 7.6184 36.7852 0.714845C36.7852 -6.18871 31.1887 -11.7852 24.2852 -11.7852C17.3816 -11.7852 11.7852 -6.18871 11.7852 0.714845C11.7852 7.6184 17.3816 13.2148 24.2852 13.2148Z" fill="black"/>
<path d="M24.2852 36.7871C31.1887 36.7871 36.7852 31.1907 36.7852 24.2871C36.7852 17.3836 31.1887 11.7871 24.2852 11.7871C17.3816 11.7871 11.7852 17.3836 11.7852 24.2871C11.7852 31.1907 17.3816 36.7871 24.2852 36.7871Z" fill="black"/>
</g>
</svg>
